# xmcd
#
# Track frame offsets:
#	150
#	21122
#	40167
#	62033
#	66312
#	90326
#	105607
#	121193
#	137349
#	149919
#	170601
#	189307
#	202896
#	225864
#
# Disc length: 3338 seconds
# Revision: 0
# Processed by: cddbd v1.5.2PL0 Copyright (c) Steve Scherf et al.
# Submitted via: dBpowerAMP V12.0
#
DISCID=b70d080e
DTITLE=The Blues Cabaret - Where Love Begins
DYEAR=2015
DGENRE=Blues
TTITLE0=Don't Dig Too Deep
TTITLE1=I Knew I Had The Blues
TTITLE2=I Want To Love You
TTITLE3=Interlude
TTITLE4=Was This Love Written In The Stars
TTITLE5=Goin' To A Party
TTITLE6=Chicken Pot Pie
TTITLE7=I Believe In You And Me
TTITLE8=Bottle Of Tolerance
TTITLE9=Desert At Night
TTITLE10=Thrill Of The Chase
TTITLE11=That Night On The Rooftop
TTITLE12=Thinkin' 'Bout You
TTITLE13=Love's A Merry Go Round
EXTD=
EXTT0=
EXTT1=
EXTT2=
EXTT3=
EXTT4=
EXTT5=
EXTT6=
EXTT7=
EXTT8=
EXTT9=
EXTT10=
EXTT11=
EXTT12=
EXTT13=
PLAYORDER=
